<svg width="1436" height="762" xmlns="http://www.w3.org/2000/svg"><g><path d="M-109,-70L-99,275L-39,78Z" fill="#f5fdff" stroke="#f5fdff" fill-opacity="1" stroke-opacity="1"/><path d="M-109,-70L-39,78L22,22Z" fill="#fafbff" stroke="#fafbff" fill-opacity="1" stroke-opacity="1"/><path d="M-109,-70L22,22L19,-131Z" fill="#f9faff" stroke="#f9faff" fill-opacity="1" stroke-opacity="1"/><path d="M19,-131L22,22L189,-87Z" fill="#f1f6fc" stroke="#f1f6fc" fill-opacity="1" stroke-opacity="1"/><path d="M19,-131L189,-87L319,-70Z" fill="#e8f1f8" stroke="#e8f1f8" fill-opacity="1" stroke-opacity="1"/><path d="M19,-131L319,-70L782,-104Z" fill="#d2e5f1" stroke="#d2e5f1" fill-opacity="1" stroke-opacity="1"/><path d="M19,-131L782,-104L1072,-122Z" fill="#b0d3e9" stroke="#b0d3e9" fill-opacity="1" stroke-opacity="1"/><path d="M19,-131L1072,-122L1425,-122Z" fill="#9bc3df" stroke="#9bc3df" fill-opacity="1" stroke-opacity="1"/><path d="M189,-87L22,22L168,78Z" fill="#ecf3fa" stroke="#ecf3fa" fill-opacity="1" stroke-opacity="1"/><path d="M189,-87L168,78L319,-70Z" fill="#e4eef6" stroke="#e4eef6" fill-opacity="1" stroke-opacity="1"/><path d="M319,-70L168,78L403,135Z" fill="#d8ebf3" stroke="#d8ebf3" fill-opacity="1" stroke-opacity="1"/><path d="M319,-70L403,135L533,48Z" fill="#c8e2ef" stroke="#c8e2ef" fill-opacity="1" stroke-opacity="1"/><path d="M319,-70L533,48L569,-40Z" fill="#c4deee" stroke="#c4deee" fill-opacity="1" stroke-opacity="1"/><path d="M319,-70L569,-40L782,-104Z" fill="#b8d8eb" stroke="#b8d8eb" fill-opacity="1" stroke-opacity="1"/><path d="M569,-40L533,48L654,45Z" fill="#b3d6ea" stroke="#b3d6ea" fill-opacity="1" stroke-opacity="1"/><path d="M569,-40L654,45L649,-49Z" fill="#b0d3e9" stroke="#b0d3e9" fill-opacity="1" stroke-opacity="1"/><path d="M569,-40L649,-49L782,-104Z" fill="#acd0e7" stroke="#acd0e7" fill-opacity="1" stroke-opacity="1"/><path d="M649,-49L654,45L782,-104Z" fill="#a9cee6" stroke="#a9cee6" fill-opacity="1" stroke-opacity="1"/><path d="M782,-104L654,45L792,112Z" fill="#a3cae3" stroke="#a3cae3" fill-opacity="1" stroke-opacity="1"/><path d="M782,-104L792,112L959,-34Z" fill="#9ac2df" stroke="#9ac2df" fill-opacity="1" stroke-opacity="1"/><path d="M782,-104L959,-34L1072,-122Z" fill="#93bada" stroke="#93bada" fill-opacity="1" stroke-opacity="1"/><path d="M959,-34L792,112L941,90Z" fill="#90bedc" stroke="#90bedc" fill-opacity="1" stroke-opacity="1"/><path d="M959,-34L941,90L1081,129Z" fill="#89b5d7" stroke="#89b5d7" fill-opacity="1" stroke-opacity="1"/><path d="M959,-34L1081,129L1072,-122Z" fill="#8cb2d4" stroke="#8cb2d4" fill-opacity="1" stroke-opacity="1"/><path d="M1072,-122L1081,129L1295,-17Z" fill="#84a8ce" stroke="#84a8ce" fill-opacity="1" stroke-opacity="1"/><path d="M1072,-122L1295,-17L1425,-122Z" fill="#809ec7" stroke="#809ec7" fill-opacity="1" stroke-opacity="1"/><path d="M1295,-17L1081,129L1302,70Z" fill="#7aa2c9" stroke="#7aa2c9" fill-opacity="1" stroke-opacity="1"/><path d="M1295,-17L1302,70L1395,50Z" fill="#7c99c3" stroke="#7c99c3" fill-opacity="1" stroke-opacity="1"/><path d="M1295,-17L1395,50L1425,-122Z" fill="#8095c1" stroke="#8095c1" fill-opacity="1" stroke-opacity="1"/><path d="M1425,-122L1395,50L1625,-79Z" fill="#808cbb" stroke="#808cbb" fill-opacity="1" stroke-opacity="1"/><path d="M1625,-79L1395,50L1569,126Z" fill="#7d88b8" stroke="#7d88b8" fill-opacity="1" stroke-opacity="1"/><path d="M1625,-79L1569,126L1618,208Z" fill="#7781b4" stroke="#7781b4" fill-opacity="1" stroke-opacity="1"/><path d="M1625,-79L1618,208L1618,847Z" fill="#3b65b1" stroke="#3b65b1" fill-opacity="1" stroke-opacity="1"/><path d="M-39,78L-99,275L75,221Z" fill="#def4ff" stroke="#def4ff" fill-opacity="1" stroke-opacity="1"/><path d="M-39,78L75,221L22,22Z" fill="#ebf8fe" stroke="#ebf8fe" fill-opacity="1" stroke-opacity="1"/><path d="M22,22L75,221L168,78Z" fill="#e5f5fc" stroke="#e5f5fc" fill-opacity="1" stroke-opacity="1"/><path d="M168,78L75,221L216,217Z" fill="#d4eff9" stroke="#d4eff9" fill-opacity="1" stroke-opacity="1"/><path d="M168,78L216,217L403,135Z" fill="#d2ecf4" stroke="#d2ecf4" fill-opacity="1" stroke-opacity="1"/><path d="M403,135L216,217L397,243Z" fill="#b9e1f2" stroke="#b9e1f2" fill-opacity="1" stroke-opacity="1"/><path d="M403,135L397,243L551,206Z" fill="#aad9ee" stroke="#aad9ee" fill-opacity="1" stroke-opacity="1"/><path d="M403,135L551,206L533,48Z" fill="#b3dced" stroke="#b3dced" fill-opacity="1" stroke-opacity="1"/><path d="M533,48L551,206L654,45Z" fill="#abd6eb" stroke="#abd6eb" fill-opacity="1" stroke-opacity="1"/><path d="M654,45L551,206L727,226Z" fill="#9dd0e8" stroke="#9dd0e8" fill-opacity="1" stroke-opacity="1"/><path d="M654,45L727,226L792,112Z" fill="#9acbe4" stroke="#9acbe4" fill-opacity="1" stroke-opacity="1"/><path d="M792,112L727,226L841,184Z" fill="#8ac3e2" stroke="#8ac3e2" fill-opacity="1" stroke-opacity="1"/><path d="M792,112L841,184L941,90Z" fill="#8cc1de" stroke="#8cc1de" fill-opacity="1" stroke-opacity="1"/><path d="M941,90L841,184L1031,197Z" fill="#82bada" stroke="#82bada" fill-opacity="1" stroke-opacity="1"/><path d="M941,90L1031,197L1081,129Z" fill="#80b3d5" stroke="#80b3d5" fill-opacity="1" stroke-opacity="1"/><path d="M1081,129L1031,197L1098,200Z" fill="#73abd2" stroke="#73abd2" fill-opacity="1" stroke-opacity="1"/><path d="M1081,129L1098,200L1253,179Z" fill="#70a6ce" stroke="#70a6ce" fill-opacity="1" stroke-opacity="1"/><path d="M1081,129L1253,179L1302,70Z" fill="#73a3ca" stroke="#73a3ca" fill-opacity="1" stroke-opacity="1"/><path d="M1302,70L1253,179L1395,50Z" fill="#769ac4" stroke="#769ac4" fill-opacity="1" stroke-opacity="1"/><path d="M1395,50L1253,179L1460,261Z" fill="#6d94c1" stroke="#6d94c1" fill-opacity="1" stroke-opacity="1"/><path d="M1395,50L1460,261L1569,126Z" fill="#718cbb" stroke="#718cbb" fill-opacity="1" stroke-opacity="1"/><path d="M1569,126L1460,261L1618,208Z" fill="#627fb7" stroke="#627fb7" fill-opacity="1" stroke-opacity="1"/><path d="M-99,275L-83,812L-58,504Z" fill="#96bde7" stroke="#96bde7" fill-opacity="1" stroke-opacity="1"/><path d="M-99,275L-58,504L-51,366Z" fill="#acd8f8" stroke="#acd8f8" fill-opacity="1" stroke-opacity="1"/><path d="M-99,275L-51,366L28,359Z" fill="#b4defc" stroke="#b4defc" fill-opacity="1" stroke-opacity="1"/><path d="M-99,275L28,359L75,221Z" fill="#bee4ff" stroke="#bee4ff" fill-opacity="1" stroke-opacity="1"/><path d="M75,221L28,359L251,371Z" fill="#aad9f9" stroke="#aad9f9" fill-opacity="1" stroke-opacity="1"/><path d="M75,221L251,371L216,217Z" fill="#b3def8" stroke="#b3def8" fill-opacity="1" stroke-opacity="1"/><path d="M216,217L251,371L397,243Z" fill="#a7d8f3" stroke="#a7d8f3" fill-opacity="1" stroke-opacity="1"/><path d="M397,243L251,371L388,343Z" fill="#93cdf0" stroke="#93cdf0" fill-opacity="1" stroke-opacity="1"/><path d="M397,243L388,343L517,334Z" fill="#89c8ef" stroke="#89c8ef" fill-opacity="1" stroke-opacity="1"/><path d="M397,243L517,334L551,206Z" fill="#90cced" stroke="#90cced" fill-opacity="1" stroke-opacity="1"/><path d="M551,206L517,334L616,326Z" fill="#7cc2eb" stroke="#7cc2eb" fill-opacity="1" stroke-opacity="1"/><path d="M551,206L616,326L727,226Z" fill="#81c2e8" stroke="#81c2e8" fill-opacity="1" stroke-opacity="1"/><path d="M727,226L616,326L839,420Z" fill="#61b0e2" stroke="#61b0e2" fill-opacity="1" stroke-opacity="1"/><path d="M727,226L839,420L841,184Z" fill="#67b2e1" stroke="#67b2e1" fill-opacity="1" stroke-opacity="1"/><path d="M841,184L839,420L968,396Z" fill="#50a2da" stroke="#50a2da" fill-opacity="1" stroke-opacity="1"/><path d="M841,184L968,396L1031,197Z" fill="#61a8d9" stroke="#61a8d9" fill-opacity="1" stroke-opacity="1"/><path d="M1031,197L968,396L1088,325Z" fill="#4c9ad5" stroke="#4c9ad5" fill-opacity="1" stroke-opacity="1"/><path d="M1031,197L1088,325L1098,200Z" fill="#5ea1d2" stroke="#5ea1d2" fill-opacity="1" stroke-opacity="1"/><path d="M1098,200L1088,325L1253,179Z" fill="#5a9bce" stroke="#5a9bce" fill-opacity="1" stroke-opacity="1"/><path d="M1253,179L1088,325L1311,328Z" fill="#498fca" stroke="#498fca" fill-opacity="1" stroke-opacity="1"/><path d="M1253,179L1311,328L1460,261Z" fill="#4f87c3" stroke="#4f87c3" fill-opacity="1" stroke-opacity="1"/><path d="M1460,261L1311,328L1441,373Z" fill="#3c78be" stroke="#3c78be" fill-opacity="1" stroke-opacity="1"/><path d="M1460,261L1441,373L1588,347Z" fill="#3b6fb8" stroke="#3b6fb8" fill-opacity="1" stroke-opacity="1"/><path d="M1460,261L1588,347L1618,208Z" fill="#4a73b6" stroke="#4a73b6" fill-opacity="1" stroke-opacity="1"/><path d="M1618,208L1588,347L1618,847Z" fill="#1c4da3" stroke="#1c4da3" fill-opacity="1" stroke-opacity="1"/><path d="M-51,366L-58,504L28,359Z" fill="#a2d1f5" stroke="#a2d1f5" fill-opacity="1" stroke-opacity="1"/><path d="M28,359L-58,504L121,546Z" fill="#91c3ed" stroke="#91c3ed" fill-opacity="1" stroke-opacity="1"/><path d="M28,359L121,546L197,516Z" fill="#8abfe9" stroke="#8abfe9" fill-opacity="1" stroke-opacity="1"/><path d="M28,359L197,516L251,371Z" fill="#90c7ee" stroke="#90c7ee" fill-opacity="1" stroke-opacity="1"/><path d="M251,371L197,516L346,565Z" fill="#7cb5e2" stroke="#7cb5e2" fill-opacity="1" stroke-opacity="1"/><path d="M251,371L346,565L388,343Z" fill="#7dbce6" stroke="#7dbce6" fill-opacity="1" stroke-opacity="1"/><path d="M388,343L346,565L551,530Z" fill="#66abdd" stroke="#66abdd" fill-opacity="1" stroke-opacity="1"/><path d="M388,343L551,530L517,334Z" fill="#6cb5e4" stroke="#6cb5e4" fill-opacity="1" stroke-opacity="1"/><path d="M517,334L551,530L616,326Z" fill="#62b0e2" stroke="#62b0e2" fill-opacity="1" stroke-opacity="1"/><path d="M616,326L551,530L668,523Z" fill="#4fa1da" stroke="#4fa1da" fill-opacity="1" stroke-opacity="1"/><path d="M616,326L668,523L839,420Z" fill="#4da1d9" stroke="#4da1d9" fill-opacity="1" stroke-opacity="1"/><path d="M839,420L668,523L845,544Z" fill="#3b8dce" stroke="#3b8dce" fill-opacity="1" stroke-opacity="1"/><path d="M839,420L845,544L968,396Z" fill="#358dce" stroke="#358dce" fill-opacity="1" stroke-opacity="1"/><path d="M968,396L845,544L999,530Z" fill="#2e82c7" stroke="#2e82c7" fill-opacity="1" stroke-opacity="1"/><path d="M968,396L999,530L1086,552Z" fill="#287ac2" stroke="#287ac2" fill-opacity="1" stroke-opacity="1"/><path d="M968,396L1086,552L1088,325Z" fill="#3084c8" stroke="#3084c8" fill-opacity="1" stroke-opacity="1"/><path d="M1088,325L1086,552L1272,547Z" fill="#2073bd" stroke="#2073bd" fill-opacity="1" stroke-opacity="1"/><path d="M1088,325L1272,547L1311,328Z" fill="#2a7ac0" stroke="#2a7ac0" fill-opacity="1" stroke-opacity="1"/><path d="M1311,328L1272,547L1441,373Z" fill="#276db8" stroke="#276db8" fill-opacity="1" stroke-opacity="1"/><path d="M1441,373L1272,547L1465,560Z" fill="#1b5aac" stroke="#1b5aac" fill-opacity="1" stroke-opacity="1"/><path d="M1441,373L1465,560L1573,555Z" fill="#1a51a6" stroke="#1a51a6" fill-opacity="1" stroke-opacity="1"/><path d="M1441,373L1573,555L1588,347Z" fill="#255bac" stroke="#255bac" fill-opacity="1" stroke-opacity="1"/><path d="M1588,347L1573,555L1618,847Z" fill="#143895" stroke="#143895" fill-opacity="1" stroke-opacity="1"/><path d="M-58,504L-83,812L-59,706Z" fill="#8aa0d5" stroke="#8aa0d5" fill-opacity="1" stroke-opacity="1"/><path d="M-58,504L-59,706L23,694Z" fill="#8aa6da" stroke="#8aa6da" fill-opacity="1" stroke-opacity="1"/><path d="M-58,504L23,694L121,546Z" fill="#89aedf" stroke="#89aedf" fill-opacity="1" stroke-opacity="1"/><path d="M121,546L23,694L220,631Z" fill="#7ea1d6" stroke="#7ea1d6" fill-opacity="1" stroke-opacity="1"/><path d="M121,546L220,631L197,516Z" fill="#7daadb" stroke="#7daadb" fill-opacity="1" stroke-opacity="1"/><path d="M197,516L220,631L346,565Z" fill="#76a5d7" stroke="#76a5d7" fill-opacity="1" stroke-opacity="1"/><path d="M346,565L220,631L350,669Z" fill="#6d98cf" stroke="#6d98cf" fill-opacity="1" stroke-opacity="1"/><path d="M346,565L350,669L495,628Z" fill="#6092cc" stroke="#6092cc" fill-opacity="1" stroke-opacity="1"/><path d="M346,565L495,628L551,530Z" fill="#5a96d0" stroke="#5a96d0" fill-opacity="1" stroke-opacity="1"/><path d="M551,530L495,628L701,677Z" fill="#4686c7" stroke="#4686c7" fill-opacity="1" stroke-opacity="1"/><path d="M551,530L701,677L668,523Z" fill="#4389c9" stroke="#4389c9" fill-opacity="1" stroke-opacity="1"/><path d="M668,523L701,677L845,544Z" fill="#3980c5" stroke="#3980c5" fill-opacity="1" stroke-opacity="1"/><path d="M845,544L701,677L855,667Z" fill="#2f72bc" stroke="#2f72bc" fill-opacity="1" stroke-opacity="1"/><path d="M845,544L855,667L999,530Z" fill="#2a74bd" stroke="#2a74bd" fill-opacity="1" stroke-opacity="1"/><path d="M999,530L855,667L918,710Z" fill="#2467b5" stroke="#2467b5" fill-opacity="1" stroke-opacity="1"/><path d="M999,530L918,710L1086,552Z" fill="#2168b5" stroke="#2168b5" fill-opacity="1" stroke-opacity="1"/><path d="M1086,552L918,710L1142,660Z" fill="#1a5bad" stroke="#1a5bad" fill-opacity="1" stroke-opacity="1"/><path d="M1086,552L1142,660L1272,547Z" fill="#165cad" stroke="#165cad" fill-opacity="1" stroke-opacity="1"/><path d="M1272,547L1142,660L1226,664Z" fill="#1151a6" stroke="#1151a6" fill-opacity="1" stroke-opacity="1"/><path d="M1272,547L1226,664L1442,661Z" fill="#1148a0" stroke="#1148a0" fill-opacity="1" stroke-opacity="1"/><path d="M1272,547L1442,661L1465,560Z" fill="#1348a0" stroke="#1348a0" fill-opacity="1" stroke-opacity="1"/><path d="M1465,560L1442,661L1554,668Z" fill="#103895" stroke="#103895" fill-opacity="1" stroke-opacity="1"/><path d="M1465,560L1554,668L1573,555Z" fill="#133b97" stroke="#133b97" fill-opacity="1" stroke-opacity="1"/><path d="M1573,555L1554,668L1618,847Z" fill="#0c2488" stroke="#0c2488" fill-opacity="1" stroke-opacity="1"/><path d="M-59,706L-83,812L23,694Z" fill="#8393cc" stroke="#8393cc" fill-opacity="1" stroke-opacity="1"/><path d="M23,694L-83,812L103,865Z" fill="#7b86c5" stroke="#7b86c5" fill-opacity="1" stroke-opacity="1"/><path d="M23,694L103,865L220,631Z" fill="#768dc8" stroke="#768dc8" fill-opacity="1" stroke-opacity="1"/><path d="M220,631L103,865L273,810Z" fill="#6c81c0" stroke="#6c81c0" fill-opacity="1" stroke-opacity="1"/><path d="M220,631L273,810L350,669Z" fill="#6a8ac5" stroke="#6a8ac5" fill-opacity="1" stroke-opacity="1"/><path d="M350,669L273,810L338,866Z" fill="#5f78ba" stroke="#5f78ba" fill-opacity="1" stroke-opacity="1"/><path d="M350,669L338,866L527,773Z" fill="#5374b9" stroke="#5374b9" fill-opacity="1" stroke-opacity="1"/><path d="M350,669L527,773L495,628Z" fill="#5280c1" stroke="#5280c1" fill-opacity="1" stroke-opacity="1"/><path d="M495,628L527,773L701,677Z" fill="#4177be" stroke="#4177be" fill-opacity="1" stroke-opacity="1"/><path d="M701,677L527,773L713,811Z" fill="#3566b3" stroke="#3566b3" fill-opacity="1" stroke-opacity="1"/><path d="M701,677L713,811L855,667Z" fill="#2d64b2" stroke="#2d64b2" fill-opacity="1" stroke-opacity="1"/><path d="M855,667L713,811L776,848Z" fill="#2657aa" stroke="#2657aa" fill-opacity="1" stroke-opacity="1"/><path d="M855,667L776,848L918,710Z" fill="#2159ab" stroke="#2159ab" fill-opacity="1" stroke-opacity="1"/><path d="M918,710L776,848L932,841Z" fill="#1b4ba2" stroke="#1b4ba2" fill-opacity="1" stroke-opacity="1"/><path d="M918,710L932,841L1127,863Z" fill="#12409b" stroke="#12409b" fill-opacity="1" stroke-opacity="1"/><path d="M918,710L1127,863L1142,660Z" fill="#12469f" stroke="#12469f" fill-opacity="1" stroke-opacity="1"/><path d="M1142,660L1127,863L1226,664Z" fill="#0c409b" stroke="#0c409b" fill-opacity="1" stroke-opacity="1"/><path d="M1226,664L1127,863L1334,804Z" fill="#053191" stroke="#053191" fill-opacity="1" stroke-opacity="1"/><path d="M1226,664L1334,804L1442,661Z" fill="#0a3594" stroke="#0a3594" fill-opacity="1" stroke-opacity="1"/><path d="M1442,661L1334,804L1436,842Z" fill="#062488" stroke="#062488" fill-opacity="1" stroke-opacity="1"/><path d="M1442,661L1436,842L1554,668Z" fill="#09278a" stroke="#09278a" fill-opacity="1" stroke-opacity="1"/><path d="M1554,668L1436,842L1618,847Z" fill="#04167f" stroke="#04167f" fill-opacity="1" stroke-opacity="1"/><path d="M-83,812L-57,952L56,916Z" fill="#7a7bb8" stroke="#7a7bb8" fill-opacity="1" stroke-opacity="1"/><path d="M-83,812L56,916L103,865Z" fill="#7679bb" stroke="#7679bb" fill-opacity="1" stroke-opacity="1"/><path d="M103,865L56,916L251,978Z" fill="#6c73b0" stroke="#6c73b0" fill-opacity="1" stroke-opacity="1"/><path d="M103,865L251,978L273,810Z" fill="#6670b1" stroke="#6670b1" fill-opacity="1" stroke-opacity="1"/><path d="M273,810L251,978L338,866Z" fill="#5f6cae" stroke="#5f6cae" fill-opacity="1" stroke-opacity="1"/><path d="M338,866L251,978L362,925Z" fill="#5a6aa8" stroke="#5a6aa8" fill-opacity="1" stroke-opacity="1"/><path d="M338,866L362,925L527,773Z" fill="#4d64ae" stroke="#4d64ae" fill-opacity="1" stroke-opacity="1"/><path d="M527,773L362,925L513,1027Z" fill="#455fa5" stroke="#455fa5" fill-opacity="1" stroke-opacity="1"/><path d="M527,773L513,1027L713,811Z" fill="#3556a6" stroke="#3556a6" fill-opacity="1" stroke-opacity="1"/><path d="M713,811L513,1027L685,1026Z" fill="#2f529a" stroke="#2f529a" fill-opacity="1" stroke-opacity="1"/><path d="M713,811L685,1026L776,848Z" fill="#274c9d" stroke="#274c9d" fill-opacity="1" stroke-opacity="1"/><path d="M776,848L685,1026L822,954Z" fill="#234996" stroke="#234996" fill-opacity="1" stroke-opacity="1"/><path d="M776,848L822,954L932,841Z" fill="#1b439a" stroke="#1b439a" fill-opacity="1" stroke-opacity="1"/><path d="M932,841L822,954L985,961Z" fill="#153d91" stroke="#153d91" fill-opacity="1" stroke-opacity="1"/><path d="M932,841L985,961L1127,863Z" fill="#0e348f" stroke="#0e348f" fill-opacity="1" stroke-opacity="1"/><path d="M1127,863L985,961L1132,967Z" fill="#092f86" stroke="#092f86" fill-opacity="1" stroke-opacity="1"/><path d="M1127,863L1132,967L1328,987Z" fill="#01257f" stroke="#01257f" fill-opacity="1" stroke-opacity="1"/><path d="M1127,863L1328,987L1334,804Z" fill="#001f82" stroke="#001f82" fill-opacity="1" stroke-opacity="1"/><path d="M1334,804L1328,987L1436,842Z" fill="#00167c" stroke="#00167c" fill-opacity="1" stroke-opacity="1"/><path d="M1436,842L1328,987L1458,972Z" fill="#001373" stroke="#001373" fill-opacity="1" stroke-opacity="1"/><path d="M1436,842L1458,972L1618,847Z" fill="#000a73" stroke="#000a73" fill-opacity="1" stroke-opacity="1"/><path d="M1618,847L1458,972L1524,1002Z" fill="#00086b" stroke="#00086b" fill-opacity="1" stroke-opacity="1"/><path d="M-57,952L513,1027L251,978Z" fill="#636ea3" stroke="#636ea3" fill-opacity="1" stroke-opacity="1"/><path d="M-57,952L251,978L56,916Z" fill="#7076ae" stroke="#7076ae" fill-opacity="1" stroke-opacity="1"/><path d="M251,978L513,1027L362,925Z" fill="#52659f" stroke="#52659f" fill-opacity="1" stroke-opacity="1"/><path d="M685,1026L1524,1002L1328,987Z" fill="#022677" stroke="#022677" fill-opacity="1" stroke-opacity="1"/><path d="M685,1026L1328,987L1132,967Z" fill="#0b3180" stroke="#0b3180" fill-opacity="1" stroke-opacity="1"/><path d="M685,1026L1132,967L985,961Z" fill="#143b88" stroke="#143b88" fill-opacity="1" stroke-opacity="1"/><path d="M685,1026L985,961L822,954Z" fill="#1c448e" stroke="#1c448e" fill-opacity="1" stroke-opacity="1"/><path d="M1328,987L1524,1002L1458,972Z" fill="#00106a" stroke="#00106a" fill-opacity="1" stroke-opacity="1"/></g></svg>