<svg preserveAspectRatio="none" xmlns="http://www.w3.org/2000/svg"><g><path d="M-95,-109L-133,693L-65,24Z" fill="#f0ffc7" stroke="#f0ffc7" fill-opacity="1" stroke-opacity="1"/><path d="M-95,-109L-65,24L54,-84Z" fill="#ffffe8" stroke="#ffffe8" fill-opacity="1" stroke-opacity="1"/><path d="M-95,-109L54,-84L385,-101Z" fill="#f6fbde" stroke="#f6fbde" fill-opacity="1" stroke-opacity="1"/><path d="M-95,-109L385,-101L1534,-123Z" fill="#c7e8c1" stroke="#c7e8c1" fill-opacity="1" stroke-opacity="1"/><path d="M54,-84L-65,24L128,116Z" fill="#fbfeda" stroke="#fbfeda" fill-opacity="1" stroke-opacity="1"/><path d="M54,-84L128,116L244,-81Z" fill="#f3fad8" stroke="#f3fad8" fill-opacity="1" stroke-opacity="1"/><path d="M54,-84L244,-81L385,-101Z" fill="#ecf7d6" stroke="#ecf7d6" fill-opacity="1" stroke-opacity="1"/><path d="M244,-81L128,116L226,92Z" fill="#ecf8cb" stroke="#ecf8cb" fill-opacity="1" stroke-opacity="1"/><path d="M244,-81L226,92L316,24Z" fill="#e8f6cb" stroke="#e8f6cb" fill-opacity="1" stroke-opacity="1"/><path d="M244,-81L316,24L385,-101Z" fill="#e4f4cf" stroke="#e4f4cf" fill-opacity="1" stroke-opacity="1"/><path d="M385,-101L316,24L501,-31Z" fill="#dcf1ca" stroke="#dcf1ca" fill-opacity="1" stroke-opacity="1"/><path d="M385,-101L501,-31L709,-59Z" fill="#cfebc5" stroke="#cfebc5" fill-opacity="1" stroke-opacity="1"/><path d="M385,-101L709,-59L787,-76Z" fill="#c5e7c0" stroke="#c5e7c0" fill-opacity="1" stroke-opacity="1"/><path d="M385,-101L787,-76L1118,-83Z" fill="#b6dfb9" stroke="#b6dfb9" fill-opacity="1" stroke-opacity="1"/><path d="M385,-101L1118,-83L1534,-123Z" fill="#99c8a6" stroke="#99c8a6" fill-opacity="1" stroke-opacity="1"/><path d="M501,-31L316,24L523,30Z" fill="#d7efc1" stroke="#d7efc1" fill-opacity="1" stroke-opacity="1"/><path d="M501,-31L523,30L709,-59Z" fill="#cae9c0" stroke="#cae9c0" fill-opacity="1" stroke-opacity="1"/><path d="M709,-59L523,30L709,58Z" fill="#c3e6b8" stroke="#c3e6b8" fill-opacity="1" stroke-opacity="1"/><path d="M709,-59L709,58L787,-76Z" fill="#bae1b9" stroke="#bae1b9" fill-opacity="1" stroke-opacity="1"/><path d="M787,-76L709,58L813,63Z" fill="#b5deb0" stroke="#b5deb0" fill-opacity="1" stroke-opacity="1"/><path d="M787,-76L813,63L982,-40Z" fill="#abd6af" stroke="#abd6af" fill-opacity="1" stroke-opacity="1"/><path d="M787,-76L982,-40L1118,-83Z" fill="#9fccaa" stroke="#9fccaa" fill-opacity="1" stroke-opacity="1"/><path d="M982,-40L813,63L1023,111Z" fill="#9fce9f" stroke="#9fce9f" fill-opacity="1" stroke-opacity="1"/><path d="M982,-40L1023,111L1118,-83Z" fill="#96c59e" stroke="#96c59e" fill-opacity="1" stroke-opacity="1"/><path d="M1118,-83L1023,111L1162,83Z" fill="#8cc093" stroke="#8cc093" fill-opacity="1" stroke-opacity="1"/><path d="M1118,-83L1162,83L1240,-83Z" fill="#86b999" stroke="#86b999" fill-opacity="1" stroke-opacity="1"/><path d="M1118,-83L1240,-83L1534,-123Z" fill="#80ad91" stroke="#80ad91" fill-opacity="1" stroke-opacity="1"/><path d="M1240,-83L1162,83L1330,123Z" fill="#7db288" stroke="#7db288" fill-opacity="1" stroke-opacity="1"/><path d="M1240,-83L1330,123L1404,-36Z" fill="#80ab89" stroke="#80ab89" fill-opacity="1" stroke-opacity="1"/><path d="M1240,-83L1404,-36L1534,-123Z" fill="#80a58a" stroke="#80a58a" fill-opacity="1" stroke-opacity="1"/><path d="M1404,-36L1330,123L1430,73Z" fill="#7ca57b" stroke="#7ca57b" fill-opacity="1" stroke-opacity="1"/><path d="M1404,-36L1430,73L1569,71Z" fill="#7d9e78" stroke="#7d9e78" fill-opacity="1" stroke-opacity="1"/><path d="M1404,-36L1569,71L1534,-123Z" fill="#809b80" stroke="#809b80" fill-opacity="1" stroke-opacity="1"/><path d="M-65,24L-133,693L-75,502Z" fill="#c0f0b0" stroke="#c0f0b0" fill-opacity="1" stroke-opacity="1"/><path d="M-65,24L-75,502L-44,180Z" fill="#e9fdc1" stroke="#e9fdc1" fill-opacity="1" stroke-opacity="1"/><path d="M-65,24L-44,180L128,116Z" fill="#f8ffce" stroke="#f8ffce" fill-opacity="1" stroke-opacity="1"/><path d="M128,116L-44,180L109,244Z" fill="#eefdbe" stroke="#eefdbe" fill-opacity="1" stroke-opacity="1"/><path d="M128,116L109,244L184,251Z" fill="#e4fab6" stroke="#e4fab6" fill-opacity="1" stroke-opacity="1"/><path d="M128,116L184,251L226,92Z" fill="#e7f9bb" stroke="#e7f9bb" fill-opacity="1" stroke-opacity="1"/><path d="M226,92L184,251L424,267Z" fill="#d9f5ac" stroke="#d9f5ac" fill-opacity="1" stroke-opacity="1"/><path d="M226,92L424,267L316,24Z" fill="#dcf4b4" stroke="#dcf4b4" fill-opacity="1" stroke-opacity="1"/><path d="M316,24L424,267L523,30Z" fill="#d4f0b2" stroke="#d4f0b2" fill-opacity="1" stroke-opacity="1"/><path d="M523,30L424,267L513,285Z" fill="#c7eda2" stroke="#c7eda2" fill-opacity="1" stroke-opacity="1"/><path d="M523,30L513,285L681,180Z" fill="#c0e9a2" stroke="#c0e9a2" fill-opacity="1" stroke-opacity="1"/><path d="M523,30L681,180L709,58Z" fill="#bfe6ab" stroke="#bfe6ab" fill-opacity="1" stroke-opacity="1"/><path d="M709,58L681,180L813,63Z" fill="#b3e1a5" stroke="#b3e1a5" fill-opacity="1" stroke-opacity="1"/><path d="M813,63L681,180L869,282Z" fill="#a9dc95" stroke="#a9dc95" fill-opacity="1" stroke-opacity="1"/><path d="M813,63L869,282L1023,111Z" fill="#9dd290" stroke="#9dd290" fill-opacity="1" stroke-opacity="1"/><path d="M1023,111L869,282L982,284Z" fill="#8bcb82" stroke="#8bcb82" fill-opacity="1" stroke-opacity="1"/><path d="M1023,111L982,284L1109,244Z" fill="#85c47e" stroke="#85c47e" fill-opacity="1" stroke-opacity="1"/><path d="M1023,111L1109,244L1162,83Z" fill="#86c082" stroke="#86c082" fill-opacity="1" stroke-opacity="1"/><path d="M1162,83L1109,244L1293,237Z" fill="#78b875" stroke="#78b875" fill-opacity="1" stroke-opacity="1"/><path d="M1162,83L1293,237L1330,123Z" fill="#76b176" stroke="#76b176" fill-opacity="1" stroke-opacity="1"/><path d="M1330,123L1293,237L1430,178Z" fill="#74a96a" stroke="#74a96a" fill-opacity="1" stroke-opacity="1"/><path d="M1330,123L1430,178L1430,73Z" fill="#78a46f" stroke="#78a46f" fill-opacity="1" stroke-opacity="1"/><path d="M1430,73L1430,178L1569,71Z" fill="#799d6c" stroke="#799d6c" fill-opacity="1" stroke-opacity="1"/><path d="M1569,71L1430,178L1589,233Z" fill="#769860" stroke="#769860" fill-opacity="1" stroke-opacity="1"/><path d="M-44,180L-75,502L-38,392Z" fill="#cdf7b4" stroke="#cdf7b4" fill-opacity="1" stroke-opacity="1"/><path d="M-44,180L-38,392L22,318Z" fill="#dbfab8" stroke="#dbfab8" fill-opacity="1" stroke-opacity="1"/><path d="M-44,180L22,318L109,244Z" fill="#e4fbba" stroke="#e4fbba" fill-opacity="1" stroke-opacity="1"/><path d="M109,244L22,318L184,251Z" fill="#d8f8b2" stroke="#d8f8b2" fill-opacity="1" stroke-opacity="1"/><path d="M184,251L22,318L270,333Z" fill="#ccf4ab" stroke="#ccf4ab" fill-opacity="1" stroke-opacity="1"/><path d="M184,251L270,333L424,267Z" fill="#c5f1a3" stroke="#c5f1a3" fill-opacity="1" stroke-opacity="1"/><path d="M424,267L270,333L417,424Z" fill="#b1eb98" stroke="#b1eb98" fill-opacity="1" stroke-opacity="1"/><path d="M424,267L417,424L490,396Z" fill="#a5e693" stroke="#a5e693" fill-opacity="1" stroke-opacity="1"/><path d="M424,267L490,396L513,285Z" fill="#ace796" stroke="#ace796" fill-opacity="1" stroke-opacity="1"/><path d="M513,285L490,396L646,319Z" fill="#a0e391" stroke="#a0e391" fill-opacity="1" stroke-opacity="1"/><path d="M513,285L646,319L681,180Z" fill="#aae495" stroke="#aae495" fill-opacity="1" stroke-opacity="1"/><path d="M681,180L646,319L869,282Z" fill="#9ede90" stroke="#9ede90" fill-opacity="1" stroke-opacity="1"/><path d="M869,282L646,319L865,405Z" fill="#85d584" stroke="#85d584" fill-opacity="1" stroke-opacity="1"/><path d="M869,282L865,405L962,352Z" fill="#76ca7b" stroke="#76ca7b" fill-opacity="1" stroke-opacity="1"/><path d="M869,282L962,352L982,284Z" fill="#7bc97c" stroke="#7bc97c" fill-opacity="1" stroke-opacity="1"/><path d="M982,284L962,352L1082,344Z" fill="#6ec174" stroke="#6ec174" fill-opacity="1" stroke-opacity="1"/><path d="M982,284L1082,344L1109,244Z" fill="#71bf74" stroke="#71bf74" fill-opacity="1" stroke-opacity="1"/><path d="M1109,244L1082,344L1310,329Z" fill="#60b46a" stroke="#60b46a" fill-opacity="1" stroke-opacity="1"/><path d="M1109,244L1310,329L1293,237Z" fill="#61af69" stroke="#61af69" fill-opacity="1" stroke-opacity="1"/><path d="M1293,237L1310,329L1430,178Z" fill="#66a663" stroke="#66a663" fill-opacity="1" stroke-opacity="1"/><path d="M1430,178L1310,329L1372,431Z" fill="#58a15b" stroke="#58a15b" fill-opacity="1" stroke-opacity="1"/><path d="M1430,178L1372,431L1588,344Z" fill="#569853" stroke="#569853" fill-opacity="1" stroke-opacity="1"/><path d="M1430,178L1588,344L1589,233Z" fill="#669555" stroke="#669555" fill-opacity="1" stroke-opacity="1"/><path d="M1589,233L1588,344L1627,662Z" fill="#3f8243" stroke="#3f8243" fill-opacity="1" stroke-opacity="1"/><path d="M-38,392L-75,502L116,560Z" fill="#abe09d" stroke="#abe09d" fill-opacity="1" stroke-opacity="1"/><path d="M-38,392L116,560L172,525Z" fill="#a2dc96" stroke="#a2dc96" fill-opacity="1" stroke-opacity="1"/><path d="M-38,392L172,525L22,318Z" fill="#bbeda6" stroke="#bbeda6" fill-opacity="1" stroke-opacity="1"/><path d="M22,318L172,525L270,333Z" fill="#b7eea1" stroke="#b7eea1" fill-opacity="1" stroke-opacity="1"/><path d="M270,333L172,525L381,488Z" fill="#9ede8f" stroke="#9ede8f" fill-opacity="1" stroke-opacity="1"/><path d="M270,333L381,488L417,424Z" fill="#a0e28f" stroke="#a0e28f" fill-opacity="1" stroke-opacity="1"/><path d="M417,424L381,488L510,552Z" fill="#84d07f" stroke="#84d07f" fill-opacity="1" stroke-opacity="1"/><path d="M417,424L510,552L490,396Z" fill="#89d483" stroke="#89d483" fill-opacity="1" stroke-opacity="1"/><path d="M490,396L510,552L626,512Z" fill="#79cb7b" stroke="#79cb7b" fill-opacity="1" stroke-opacity="1"/><path d="M490,396L626,512L646,319Z" fill="#8ad986" stroke="#8ad986" fill-opacity="1" stroke-opacity="1"/><path d="M646,319L626,512L865,405Z" fill="#7cd380" stroke="#7cd380" fill-opacity="1" stroke-opacity="1"/><path d="M865,405L626,512L853,514Z" fill="#63bf70" stroke="#63bf70" fill-opacity="1" stroke-opacity="1"/><path d="M865,405L853,514L942,475Z" fill="#59b86a" stroke="#59b86a" fill-opacity="1" stroke-opacity="1"/><path d="M865,405L942,475L962,352Z" fill="#63c070" stroke="#63c070" fill-opacity="1" stroke-opacity="1"/><path d="M962,352L942,475L1082,344Z" fill="#60be6e" stroke="#60be6e" fill-opacity="1" stroke-opacity="1"/><path d="M1082,344L942,475L1125,491Z" fill="#4daf62" stroke="#4daf62" fill-opacity="1" stroke-opacity="1"/><path d="M1082,344L1125,491L1310,329Z" fill="#4cae62" stroke="#4cae62" fill-opacity="1" stroke-opacity="1"/><path d="M1310,329L1125,491L1300,539Z" fill="#349a51" stroke="#349a51" fill-opacity="1" stroke-opacity="1"/><path d="M1310,329L1300,539L1372,431Z" fill="#3a964e" stroke="#3a964e" fill-opacity="1" stroke-opacity="1"/><path d="M1372,431L1300,539L1422,476Z" fill="#2d8943" stroke="#2d8943" fill-opacity="1" stroke-opacity="1"/><path d="M1372,431L1422,476L1588,344Z" fill="#3e8d47" stroke="#3e8d47" fill-opacity="1" stroke-opacity="1"/><path d="M1588,344L1422,476L1603,584Z" fill="#307c3a" stroke="#307c3a" fill-opacity="1" stroke-opacity="1"/><path d="M1588,344L1603,584L1627,662Z" fill="#20692f" stroke="#20692f" fill-opacity="1" stroke-opacity="1"/><path d="M-75,502L-133,693L117,691Z" fill="#85c287" stroke="#85c287" fill-opacity="1" stroke-opacity="1"/><path d="M-75,502L117,691L116,560Z" fill="#8cca89" stroke="#8cca89" fill-opacity="1" stroke-opacity="1"/><path d="M116,560L117,691L197,666Z" fill="#76bb79" stroke="#76bb79" fill-opacity="1" stroke-opacity="1"/><path d="M116,560L197,666L172,525Z" fill="#83c681" stroke="#83c681" fill-opacity="1" stroke-opacity="1"/><path d="M172,525L197,666L320,686Z" fill="#72bb75" stroke="#72bb75" fill-opacity="1" stroke-opacity="1"/><path d="M172,525L320,686L381,488Z" fill="#7dc57b" stroke="#7dc57b" fill-opacity="1" stroke-opacity="1"/><path d="M381,488L320,686L510,552Z" fill="#70bf72" stroke="#70bf72" fill-opacity="1" stroke-opacity="1"/><path d="M510,552L320,686L539,660Z" fill="#5bb166" stroke="#5bb166" fill-opacity="1" stroke-opacity="1"/><path d="M510,552L539,660L626,512Z" fill="#60b86b" stroke="#60b86b" fill-opacity="1" stroke-opacity="1"/><path d="M626,512L539,660L639,705Z" fill="#4eac61" stroke="#4eac61" fill-opacity="1" stroke-opacity="1"/><path d="M626,512L639,705L788,616Z" fill="#4aab60" stroke="#4aab60" fill-opacity="1" stroke-opacity="1"/><path d="M626,512L788,616L853,514Z" fill="#53b366" stroke="#53b366" fill-opacity="1" stroke-opacity="1"/><path d="M853,514L788,616L945,683Z" fill="#379e54" stroke="#379e54" fill-opacity="1" stroke-opacity="1"/><path d="M853,514L945,683L942,475Z" fill="#3ea359" stroke="#3ea359" fill-opacity="1" stroke-opacity="1"/><path d="M942,475L945,683L1125,491Z" fill="#359c53" stroke="#359c53" fill-opacity="1" stroke-opacity="1"/><path d="M1125,491L945,683L1150,690Z" fill="#198742" stroke="#198742" fill-opacity="1" stroke-opacity="1"/><path d="M1125,491L1150,690L1238,672Z" fill="#0f7f3b" stroke="#0f7f3b" fill-opacity="1" stroke-opacity="1"/><path d="M1125,491L1238,672L1300,539Z" fill="#16853f" stroke="#16853f" fill-opacity="1" stroke-opacity="1"/><path d="M1300,539L1238,672L1394,731Z" fill="#006c2c" stroke="#006c2c" fill-opacity="1" stroke-opacity="1"/><path d="M1300,539L1394,731L1422,476Z" fill="#127432" stroke="#127432" fill-opacity="1" stroke-opacity="1"/><path d="M1422,476L1394,731L1603,584Z" fill="#0e6727" stroke="#0e6727" fill-opacity="1" stroke-opacity="1"/><path d="M1603,584L1394,731L1627,662Z" fill="#00541a" stroke="#00541a" fill-opacity="1" stroke-opacity="1"/><path d="M-133,693L-75,961L-68,824Z" fill="#80996d" stroke="#80996d" fill-opacity="1" stroke-opacity="1"/><path d="M-133,693L-68,824L117,691Z" fill="#80ac75" stroke="#80ac75" fill-opacity="1" stroke-opacity="1"/><path d="M117,691L-68,824L103,836Z" fill="#7ba067" stroke="#7ba067" fill-opacity="1" stroke-opacity="1"/><path d="M117,691L103,836L226,860Z" fill="#739b5e" stroke="#739b5e" fill-opacity="1" stroke-opacity="1"/><path d="M117,691L226,860L197,666Z" fill="#70a565" stroke="#70a565" fill-opacity="1" stroke-opacity="1"/><path d="M197,666L226,860L320,686Z" fill="#6ba361" stroke="#6ba361" fill-opacity="1" stroke-opacity="1"/><path d="M320,686L226,860L413,806Z" fill="#659754" stroke="#659754" fill-opacity="1" stroke-opacity="1"/><path d="M320,686L413,806L539,660Z" fill="#5ba159" stroke="#5ba159" fill-opacity="1" stroke-opacity="1"/><path d="M539,660L413,806L554,833Z" fill="#53934e" stroke="#53934e" fill-opacity="1" stroke-opacity="1"/><path d="M539,660L554,833L639,705Z" fill="#4b9750" stroke="#4b9750" fill-opacity="1" stroke-opacity="1"/><path d="M639,705L554,833L714,820Z" fill="#458944" stroke="#458944" fill-opacity="1" stroke-opacity="1"/><path d="M639,705L714,820L774,808Z" fill="#3d8843" stroke="#3d8843" fill-opacity="1" stroke-opacity="1"/><path d="M639,705L774,808L788,616Z" fill="#3a944d" stroke="#3a944d" fill-opacity="1" stroke-opacity="1"/><path d="M788,616L774,808L945,683Z" fill="#2e8c46" stroke="#2e8c46" fill-opacity="1" stroke-opacity="1"/><path d="M945,683L774,808L1016,883Z" fill="#257231" stroke="#257231" fill-opacity="1" stroke-opacity="1"/><path d="M945,683L1016,883L1069,790Z" fill="#1a6a2b" stroke="#1a6a2b" fill-opacity="1" stroke-opacity="1"/><path d="M945,683L1069,790L1150,690Z" fill="#147432" stroke="#147432" fill-opacity="1" stroke-opacity="1"/><path d="M1150,690L1069,790L1250,851Z" fill="#085f21" stroke="#085f21" fill-opacity="1" stroke-opacity="1"/><path d="M1150,690L1250,851L1238,672Z" fill="#026224" stroke="#026224" fill-opacity="1" stroke-opacity="1"/><path d="M1238,672L1250,851L1394,731Z" fill="#00571b" stroke="#00571b" fill-opacity="1" stroke-opacity="1"/><path d="M1394,731L1250,851L1453,840Z" fill="#00450d" stroke="#00450d" fill-opacity="1" stroke-opacity="1"/><path d="M1394,731L1453,840L1627,662Z" fill="#00470e" stroke="#00470e" fill-opacity="1" stroke-opacity="1"/><path d="M1627,662L1453,840L1620,831Z" fill="#003906" stroke="#003906" fill-opacity="1" stroke-opacity="1"/><path d="M-68,824L-75,961L98,956Z" fill="#808767" stroke="#808767" fill-opacity="1" stroke-opacity="1"/><path d="M-68,824L98,956L103,836Z" fill="#7c8e63" stroke="#7c8e63" fill-opacity="1" stroke-opacity="1"/><path d="M103,836L98,956L226,929Z" fill="#74845c" stroke="#74845c" fill-opacity="1" stroke-opacity="1"/><path d="M103,836L226,929L226,860Z" fill="#708959" stroke="#708959" fill-opacity="1" stroke-opacity="1"/><path d="M226,860L226,929L413,806Z" fill="#678752" stroke="#678752" fill-opacity="1" stroke-opacity="1"/><path d="M413,806L226,929L420,1025Z" fill="#62794d" stroke="#62794d" fill-opacity="1" stroke-opacity="1"/><path d="M413,806L420,1025L529,983Z" fill="#577249" stroke="#577249" fill-opacity="1" stroke-opacity="1"/><path d="M413,806L529,983L554,833Z" fill="#537d47" stroke="#537d47" fill-opacity="1" stroke-opacity="1"/><path d="M554,833L529,983L731,1001Z" fill="#486b42" stroke="#486b42" fill-opacity="1" stroke-opacity="1"/><path d="M554,833L731,1001L714,820Z" fill="#42733f" stroke="#42733f" fill-opacity="1" stroke-opacity="1"/><path d="M714,820L731,1001L816,928Z" fill="#38673a" stroke="#38673a" fill-opacity="1" stroke-opacity="1"/><path d="M714,820L816,928L774,808Z" fill="#367339" stroke="#367339" fill-opacity="1" stroke-opacity="1"/><path d="M774,808L816,928L1016,883Z" fill="#2a6531" stroke="#2a6531" fill-opacity="1" stroke-opacity="1"/><path d="M1016,883L816,928L1012,922Z" fill="#21562b" stroke="#21562b" fill-opacity="1" stroke-opacity="1"/><path d="M1016,883L1012,922L1181,952Z" fill="#134922" stroke="#134922" fill-opacity="1" stroke-opacity="1"/><path d="M1016,883L1181,952L1069,790Z" fill="#105121" stroke="#105121" fill-opacity="1" stroke-opacity="1"/><path d="M1069,790L1181,952L1250,851Z" fill="#074c1b" stroke="#074c1b" fill-opacity="1" stroke-opacity="1"/><path d="M1250,851L1181,952L1270,954Z" fill="#003a16" stroke="#003a16" fill-opacity="1" stroke-opacity="1"/><path d="M1250,851L1270,954L1371,980Z" fill="#003311" stroke="#003311" fill-opacity="1" stroke-opacity="1"/><path d="M1250,851L1371,980L1453,840Z" fill="#00350d" stroke="#00350d" fill-opacity="1" stroke-opacity="1"/><path d="M1453,840L1371,980L1605,934Z" fill="#002404" stroke="#002404" fill-opacity="1" stroke-opacity="1"/><path d="M1453,840L1605,934L1620,831Z" fill="#002700" stroke="#002700" fill-opacity="1" stroke-opacity="1"/><path d="M-75,961L420,1025L98,956Z" fill="#737b5c" stroke="#737b5c" fill-opacity="1" stroke-opacity="1"/><path d="M98,956L420,1025L226,929Z" fill="#6b7755" stroke="#6b7755" fill-opacity="1" stroke-opacity="1"/><path d="M420,1025L1371,980L731,1001Z" fill="#2e5834" stroke="#2e5834" fill-opacity="1" stroke-opacity="1"/><path d="M420,1025L731,1001L529,983Z" fill="#4d6a44" stroke="#4d6a44" fill-opacity="1" stroke-opacity="1"/><path d="M731,1001L1371,980L1181,952Z" fill="#104120" stroke="#104120" fill-opacity="1" stroke-opacity="1"/><path d="M731,1001L1181,952L1012,922Z" fill="#1e4c29" stroke="#1e4c29" fill-opacity="1" stroke-opacity="1"/><path d="M731,1001L1012,922L816,928Z" fill="#2c5733" stroke="#2c5733" fill-opacity="1" stroke-opacity="1"/><path d="M1181,952L1371,980L1270,954Z" fill="#003013" stroke="#003013" fill-opacity="1" stroke-opacity="1"/></g></svg>