<svg width="1436" height="762" xmlns="http://www.w3.org/2000/svg"><g><path d="M-119,-26L-106,646L-98,266Z" fill="#ffd6a6" stroke="#ffd6a6" fill-opacity="1" stroke-opacity="1"/><path d="M-119,-26L-98,266L-62,47Z" fill="#fff5df" stroke="#fff5df" fill-opacity="1" stroke-opacity="1"/><path d="M-119,-26L-62,47L70,-70Z" fill="#fff9f4" stroke="#fff9f4" fill-opacity="1" stroke-opacity="1"/><path d="M70,-70L-62,47L19,69Z" fill="#fff4e8" stroke="#fff4e8" fill-opacity="1" stroke-opacity="1"/><path d="M70,-70L19,69L187,123Z" fill="#ffebd3" stroke="#ffebd3" fill-opacity="1" stroke-opacity="1"/><path d="M70,-70L187,123L257,-19Z" fill="#fee7d1" stroke="#fee7d1" fill-opacity="1" stroke-opacity="1"/><path d="M70,-70L257,-19L339,-107Z" fill="#fee4cc" stroke="#fee4cc" fill-opacity="1" stroke-opacity="1"/><path d="M257,-19L187,123L350,50Z" fill="#fedcb5" stroke="#fedcb5" fill-opacity="1" stroke-opacity="1"/><path d="M257,-19L350,50L339,-107Z" fill="#fedcbf" stroke="#fedcbf" fill-opacity="1" stroke-opacity="1"/><path d="M339,-107L350,50L510,47Z" fill="#fed5b4" stroke="#fed5b4" fill-opacity="1" stroke-opacity="1"/><path d="M339,-107L510,47L544,-39Z" fill="#fed0ac" stroke="#fed0ac" fill-opacity="1" stroke-opacity="1"/><path d="M339,-107L544,-39L785,-117Z" fill="#fec8a0" stroke="#fec8a0" fill-opacity="1" stroke-opacity="1"/><path d="M544,-39L510,47L618,125Z" fill="#fec492" stroke="#fec492" fill-opacity="1" stroke-opacity="1"/><path d="M544,-39L618,125L694,-29Z" fill="#fcc094" stroke="#fcc094" fill-opacity="1" stroke-opacity="1"/><path d="M544,-39L694,-29L785,-117Z" fill="#fabd96" stroke="#fabd96" fill-opacity="1" stroke-opacity="1"/><path d="M694,-29L618,125L781,69Z" fill="#f9b582" stroke="#f9b582" fill-opacity="1" stroke-opacity="1"/><path d="M694,-29L781,69L785,-117Z" fill="#f7b58f" stroke="#f7b58f" fill-opacity="1" stroke-opacity="1"/><path d="M785,-117L781,69L923,39Z" fill="#f4ad89" stroke="#f4ad89" fill-opacity="1" stroke-opacity="1"/><path d="M785,-117L923,39L1006,-56Z" fill="#eea886" stroke="#eea886" fill-opacity="1" stroke-opacity="1"/><path d="M785,-117L1006,-56L1177,-109Z" fill="#e5a384" stroke="#e5a384" fill-opacity="1" stroke-opacity="1"/><path d="M785,-117L1177,-109L1594,-133Z" fill="#cf9981" stroke="#cf9981" fill-opacity="1" stroke-opacity="1"/><path d="M1006,-56L923,39L1148,65Z" fill="#e0a07e" stroke="#e0a07e" fill-opacity="1" stroke-opacity="1"/><path d="M1006,-56L1148,65L1177,-109Z" fill="#d79d82" stroke="#d79d82" fill-opacity="1" stroke-opacity="1"/><path d="M1177,-109L1148,65L1277,-63Z" fill="#cd9880" stroke="#cd9880" fill-opacity="1" stroke-opacity="1"/><path d="M1177,-109L1277,-63L1388,-80Z" fill="#c49480" stroke="#c49480" fill-opacity="1" stroke-opacity="1"/><path d="M1177,-109L1388,-80L1594,-133Z" fill="#b88e80" stroke="#b88e80" fill-opacity="1" stroke-opacity="1"/><path d="M1277,-63L1148,65L1253,93Z" fill="#ca9476" stroke="#ca9476" fill-opacity="1" stroke-opacity="1"/><path d="M1277,-63L1253,93L1388,-80Z" fill="#c19280" stroke="#c19280" fill-opacity="1" stroke-opacity="1"/><path d="M1388,-80L1253,93L1470,88Z" fill="#ba8c75" stroke="#ba8c75" fill-opacity="1" stroke-opacity="1"/><path d="M1388,-80L1470,88L1594,-133Z" fill="#ad8980" stroke="#ad8980" fill-opacity="1" stroke-opacity="1"/><path d="M1594,-133L1470,88L1608,73Z" fill="#a5847d" stroke="#a5847d" fill-opacity="1" stroke-opacity="1"/><path d="M-62,47L-98,266L19,69Z" fill="#ffefce" stroke="#ffefce" fill-opacity="1" stroke-opacity="1"/><path d="M19,69L-98,266L71,244Z" fill="#ffe0b3" stroke="#ffe0b3" fill-opacity="1" stroke-opacity="1"/><path d="M19,69L71,244L187,123Z" fill="#ffe1b2" stroke="#ffe1b2" fill-opacity="1" stroke-opacity="1"/><path d="M187,123L71,244L181,263Z" fill="#fed197" stroke="#fed197" fill-opacity="1" stroke-opacity="1"/><path d="M187,123L181,263L376,191Z" fill="#fecc8c" stroke="#fecc8c" fill-opacity="1" stroke-opacity="1"/><path d="M187,123L376,191L350,50Z" fill="#fed29a" stroke="#fed29a" fill-opacity="1" stroke-opacity="1"/><path d="M350,50L376,191L510,47Z" fill="#fecb94" stroke="#fecb94" fill-opacity="1" stroke-opacity="1"/><path d="M510,47L376,191L575,215Z" fill="#fec079" stroke="#fec079" fill-opacity="1" stroke-opacity="1"/><path d="M510,47L575,215L618,125Z" fill="#febb76" stroke="#febb76" fill-opacity="1" stroke-opacity="1"/><path d="M618,125L575,215L675,241Z" fill="#fcac5d" stroke="#fcac5d" fill-opacity="1" stroke-opacity="1"/><path d="M618,125L675,241L781,69Z" fill="#faad66" stroke="#faad66" fill-opacity="1" stroke-opacity="1"/><path d="M781,69L675,241L802,238Z" fill="#f7a156" stroke="#f7a156" fill-opacity="1" stroke-opacity="1"/><path d="M781,69L802,238L923,39Z" fill="#f4a264" stroke="#f4a264" fill-opacity="1" stroke-opacity="1"/><path d="M923,39L802,238L969,222Z" fill="#ef9851" stroke="#ef9851" fill-opacity="1" stroke-opacity="1"/><path d="M923,39L969,222L1089,197Z" fill="#e49553" stroke="#e49553" fill-opacity="1" stroke-opacity="1"/><path d="M923,39L1089,197L1148,65Z" fill="#dd9763" stroke="#dd9763" fill-opacity="1" stroke-opacity="1"/><path d="M1148,65L1089,197L1253,93Z" fill="#d18f5b" stroke="#d18f5b" fill-opacity="1" stroke-opacity="1"/><path d="M1253,93L1089,197L1323,246Z" fill="#cb8448" stroke="#cb8448" fill-opacity="1" stroke-opacity="1"/><path d="M1253,93L1323,246L1470,88Z" fill="#bc8352" stroke="#bc8352" fill-opacity="1" stroke-opacity="1"/><path d="M1470,88L1323,246L1447,243Z" fill="#b57744" stroke="#b57744" fill-opacity="1" stroke-opacity="1"/><path d="M1470,88L1447,243L1552,167Z" fill="#ad784b" stroke="#ad784b" fill-opacity="1" stroke-opacity="1"/><path d="M1470,88L1552,167L1608,73Z" fill="#a77b5d" stroke="#a77b5d" fill-opacity="1" stroke-opacity="1"/><path d="M1608,73L1552,167L1613,545Z" fill="#a16030" stroke="#a16030" fill-opacity="1" stroke-opacity="1"/><path d="M-98,266L-106,646L-88,467Z" fill="#feb190" stroke="#feb190" fill-opacity="1" stroke-opacity="1"/><path d="M-98,266L-88,467L-44,349Z" fill="#ffc598" stroke="#ffc598" fill-opacity="1" stroke-opacity="1"/><path d="M-98,266L-44,349L71,244Z" fill="#ffd09c" stroke="#ffd09c" fill-opacity="1" stroke-opacity="1"/><path d="M71,244L-44,349L100,401Z" fill="#ffc189" stroke="#ffc189" fill-opacity="1" stroke-opacity="1"/><path d="M71,244L100,401L181,263Z" fill="#ffc281" stroke="#ffc281" fill-opacity="1" stroke-opacity="1"/><path d="M181,263L100,401L198,340Z" fill="#feb777" stroke="#feb777" fill-opacity="1" stroke-opacity="1"/><path d="M181,263L198,340L382,351Z" fill="#feb36a" stroke="#feb36a" fill-opacity="1" stroke-opacity="1"/><path d="M181,263L382,351L376,191Z" fill="#feb86d" stroke="#feb86d" fill-opacity="1" stroke-opacity="1"/><path d="M376,191L382,351L518,331Z" fill="#feaa59" stroke="#feaa59" fill-opacity="1" stroke-opacity="1"/><path d="M376,191L518,331L575,215Z" fill="#fead5e" stroke="#fead5e" fill-opacity="1" stroke-opacity="1"/><path d="M575,215L518,331L675,241Z" fill="#fea14d" stroke="#fea14d" fill-opacity="1" stroke-opacity="1"/><path d="M675,241L518,331L661,404Z" fill="#fd923c" stroke="#fd923c" fill-opacity="1" stroke-opacity="1"/><path d="M675,241L661,404L838,351Z" fill="#f88632" stroke="#f88632" fill-opacity="1" stroke-opacity="1"/><path d="M675,241L838,351L802,238Z" fill="#f68d3a" stroke="#f68d3a" fill-opacity="1" stroke-opacity="1"/><path d="M802,238L838,351L969,222Z" fill="#f28534" stroke="#f28534" fill-opacity="1" stroke-opacity="1"/><path d="M969,222L838,351L922,401Z" fill="#ed7827" stroke="#ed7827" fill-opacity="1" stroke-opacity="1"/><path d="M969,222L922,401L1152,368Z" fill="#e27125" stroke="#e27125" fill-opacity="1" stroke-opacity="1"/><path d="M969,222L1152,368L1089,197Z" fill="#dc7c33" stroke="#dc7c33" fill-opacity="1" stroke-opacity="1"/><path d="M1089,197L1152,368L1323,246Z" fill="#ce742f" stroke="#ce742f" fill-opacity="1" stroke-opacity="1"/><path d="M1323,246L1152,368L1267,427Z" fill="#c8601f" stroke="#c8601f" fill-opacity="1" stroke-opacity="1"/><path d="M1323,246L1267,427L1445,336Z" fill="#bd5e20" stroke="#bd5e20" fill-opacity="1" stroke-opacity="1"/><path d="M1323,246L1445,336L1447,243Z" fill="#b6672c" stroke="#b6672c" fill-opacity="1" stroke-opacity="1"/><path d="M1447,243L1445,336L1517,384Z" fill="#af5a22" stroke="#af5a22" fill-opacity="1" stroke-opacity="1"/><path d="M1447,243L1517,384L1552,167Z" fill="#ab642f" stroke="#ab642f" fill-opacity="1" stroke-opacity="1"/><path d="M1552,167L1517,384L1613,545Z" fill="#a54c1d" stroke="#a54c1d" fill-opacity="1" stroke-opacity="1"/><path d="M-44,349L-88,467L100,401Z" fill="#ffb688" stroke="#ffb688" fill-opacity="1" stroke-opacity="1"/><path d="M100,401L-88,467L124,562Z" fill="#fba37a" stroke="#fba37a" fill-opacity="1" stroke-opacity="1"/><path d="M100,401L124,562L281,515Z" fill="#f89767" stroke="#f89767" fill-opacity="1" stroke-opacity="1"/><path d="M100,401L281,515L198,340Z" fill="#fea267" stroke="#fea267" fill-opacity="1" stroke-opacity="1"/><path d="M198,340L281,515L321,484Z" fill="#fe9659" stroke="#fe9659" fill-opacity="1" stroke-opacity="1"/><path d="M198,340L321,484L382,351Z" fill="#fe9f5a" stroke="#fe9f5a" fill-opacity="1" stroke-opacity="1"/><path d="M382,351L321,484L533,581Z" fill="#fb8544" stroke="#fb8544" fill-opacity="1" stroke-opacity="1"/><path d="M382,351L533,581L518,331Z" fill="#fe8a41" stroke="#fe8a41" fill-opacity="1" stroke-opacity="1"/><path d="M518,331L533,581L628,494Z" fill="#fc7932" stroke="#fc7932" fill-opacity="1" stroke-opacity="1"/><path d="M518,331L628,494L661,404Z" fill="#fd8133" stroke="#fd8133" fill-opacity="1" stroke-opacity="1"/><path d="M661,404L628,494L821,482Z" fill="#f96c25" stroke="#f96c25" fill-opacity="1" stroke-opacity="1"/><path d="M661,404L821,482L838,351Z" fill="#f67025" stroke="#f67025" fill-opacity="1" stroke-opacity="1"/><path d="M838,351L821,482L922,401Z" fill="#f3671e" stroke="#f3671e" fill-opacity="1" stroke-opacity="1"/><path d="M922,401L821,482L1025,535Z" fill="#e95817" stroke="#e95817" fill-opacity="1" stroke-opacity="1"/><path d="M922,401L1025,535L1152,368Z" fill="#e05918" stroke="#e05918" fill-opacity="1" stroke-opacity="1"/><path d="M1152,368L1025,535L1098,545Z" fill="#d44e14" stroke="#d44e14" fill-opacity="1" stroke-opacity="1"/><path d="M1152,368L1098,545L1267,427Z" fill="#d04f14" stroke="#d04f14" fill-opacity="1" stroke-opacity="1"/><path d="M1267,427L1098,545L1247,565Z" fill="#c24412" stroke="#c24412" fill-opacity="1" stroke-opacity="1"/><path d="M1267,427L1247,565L1373,549Z" fill="#b83f12" stroke="#b83f12" fill-opacity="1" stroke-opacity="1"/><path d="M1267,427L1373,549L1445,336Z" fill="#bb4714" stroke="#bb4714" fill-opacity="1" stroke-opacity="1"/><path d="M1445,336L1373,549L1517,384Z" fill="#b24516" stroke="#b24516" fill-opacity="1" stroke-opacity="1"/><path d="M1517,384L1373,549L1437,616Z" fill="#a73712" stroke="#a73712" fill-opacity="1" stroke-opacity="1"/><path d="M1517,384L1437,616L1613,545Z" fill="#9e3312" stroke="#9e3312" fill-opacity="1" stroke-opacity="1"/><path d="M-88,467L-106,646L124,562Z" fill="#ec9f84" stroke="#ec9f84" fill-opacity="1" stroke-opacity="1"/><path d="M124,562L-106,646L125,724Z" fill="#dc8f79" stroke="#dc8f79" fill-opacity="1" stroke-opacity="1"/><path d="M124,562L125,724L244,671Z" fill="#da8467" stroke="#da8467" fill-opacity="1" stroke-opacity="1"/><path d="M124,562L244,671L281,515Z" fill="#e7895f" stroke="#e7895f" fill-opacity="1" stroke-opacity="1"/><path d="M281,515L244,671L377,652Z" fill="#e17e53" stroke="#e17e53" fill-opacity="1" stroke-opacity="1"/><path d="M281,515L377,652L321,484Z" fill="#ed834f" stroke="#ed834f" fill-opacity="1" stroke-opacity="1"/><path d="M321,484L377,652L533,581Z" fill="#e97945" stroke="#e97945" fill-opacity="1" stroke-opacity="1"/><path d="M533,581L377,652L571,670Z" fill="#dd6b3a" stroke="#dd6b3a" fill-opacity="1" stroke-opacity="1"/><path d="M533,581L571,670L628,494Z" fill="#e76a30" stroke="#e76a30" fill-opacity="1" stroke-opacity="1"/><path d="M628,494L571,670L733,617Z" fill="#e2622a" stroke="#e2622a" fill-opacity="1" stroke-opacity="1"/><path d="M628,494L733,617L821,482Z" fill="#ea6123" stroke="#ea6123" fill-opacity="1" stroke-opacity="1"/><path d="M821,482L733,617L793,690Z" fill="#dc541f" stroke="#dc541f" fill-opacity="1" stroke-opacity="1"/><path d="M821,482L793,690L957,714Z" fill="#d34919" stroke="#d34919" fill-opacity="1" stroke-opacity="1"/><path d="M821,482L957,714L1025,535Z" fill="#d44b17" stroke="#d44b17" fill-opacity="1" stroke-opacity="1"/><path d="M1025,535L957,714L1148,686Z" fill="#bc3c15" stroke="#bc3c15" fill-opacity="1" stroke-opacity="1"/><path d="M1025,535L1148,686L1098,545Z" fill="#c14114" stroke="#c14114" fill-opacity="1" stroke-opacity="1"/><path d="M1098,545L1148,686L1247,565Z" fill="#b73c13" stroke="#b73c13" fill-opacity="1" stroke-opacity="1"/><path d="M1247,565L1148,686L1309,667Z" fill="#a73312" stroke="#a73312" fill-opacity="1" stroke-opacity="1"/><path d="M1247,565L1309,667L1373,549Z" fill="#a73512" stroke="#a73512" fill-opacity="1" stroke-opacity="1"/><path d="M1373,549L1309,667L1437,616Z" fill="#9d2f12" stroke="#9d2f12" fill-opacity="1" stroke-opacity="1"/><path d="M1613,545L1437,616L1559,721Z" fill="#882412" stroke="#882412" fill-opacity="1" stroke-opacity="1"/><path d="M1613,545L1559,721L1582,842Z" fill="#741812" stroke="#741812" fill-opacity="1" stroke-opacity="1"/><path d="M-106,646L-44,1005L-37,862Z" fill="#b8808a" stroke="#b8808a" fill-opacity="1" stroke-opacity="1"/><path d="M-106,646L-37,862L102,797Z" fill="#c58483" stroke="#c58483" fill-opacity="1" stroke-opacity="1"/><path d="M-106,646L102,797L125,724Z" fill="#cd867b" stroke="#cd867b" fill-opacity="1" stroke-opacity="1"/><path d="M125,724L102,797L195,772Z" fill="#c5786b" stroke="#c5786b" fill-opacity="1" stroke-opacity="1"/><path d="M125,724L195,772L244,671Z" fill="#cd7a64" stroke="#cd7a64" fill-opacity="1" stroke-opacity="1"/><path d="M244,671L195,772L362,779Z" fill="#c97157" stroke="#c97157" fill-opacity="1" stroke-opacity="1"/><path d="M244,671L362,779L377,652Z" fill="#d1714f" stroke="#d1714f" fill-opacity="1" stroke-opacity="1"/><path d="M377,652L362,779L571,670Z" fill="#d16741" stroke="#d16741" fill-opacity="1" stroke-opacity="1"/><path d="M571,670L362,779L545,837Z" fill="#c55b3a" stroke="#c55b3a" fill-opacity="1" stroke-opacity="1"/><path d="M571,670L545,837L627,794Z" fill="#c4532f" stroke="#c4532f" fill-opacity="1" stroke-opacity="1"/><path d="M571,670L627,794L733,617Z" fill="#cf562a" stroke="#cf562a" fill-opacity="1" stroke-opacity="1"/><path d="M733,617L627,794L793,690Z" fill="#cb4e24" stroke="#cb4e24" fill-opacity="1" stroke-opacity="1"/><path d="M793,690L627,794L848,770Z" fill="#c04421" stroke="#c04421" fill-opacity="1" stroke-opacity="1"/><path d="M793,690L848,770L957,714Z" fill="#c03d18" stroke="#c03d18" fill-opacity="1" stroke-opacity="1"/><path d="M957,714L848,770L935,877Z" fill="#af3217" stroke="#af3217" fill-opacity="1" stroke-opacity="1"/><path d="M957,714L935,877L1099,808Z" fill="#a42c16" stroke="#a42c16" fill-opacity="1" stroke-opacity="1"/><path d="M957,714L1099,808L1148,686Z" fill="#a83015" stroke="#a83015" fill-opacity="1" stroke-opacity="1"/><path d="M1148,686L1099,808L1287,848Z" fill="#932513" stroke="#932513" fill-opacity="1" stroke-opacity="1"/><path d="M1148,686L1287,848L1309,667Z" fill="#942712" stroke="#942712" fill-opacity="1" stroke-opacity="1"/><path d="M1309,667L1287,848L1455,772Z" fill="#831e12" stroke="#831e12" fill-opacity="1" stroke-opacity="1"/><path d="M1309,667L1455,772L1437,616Z" fill="#8c2512" stroke="#8c2512" fill-opacity="1" stroke-opacity="1"/><path d="M1437,616L1455,772L1559,721Z" fill="#7f1e12" stroke="#7f1e12" fill-opacity="1" stroke-opacity="1"/><path d="M1559,721L1455,772L1582,842Z" fill="#6c1212" stroke="#6c1212" fill-opacity="1" stroke-opacity="1"/><path d="M-37,862L-44,1005L126,989Z" fill="#a2767e" stroke="#a2767e" fill-opacity="1" stroke-opacity="1"/><path d="M-37,862L126,989L102,797Z" fill="#af7277" stroke="#af7277" fill-opacity="1" stroke-opacity="1"/><path d="M102,797L126,989L195,772Z" fill="#b56e6b" stroke="#b56e6b" fill-opacity="1" stroke-opacity="1"/><path d="M195,772L126,989L277,1034Z" fill="#a66662" stroke="#a66662" fill-opacity="1" stroke-opacity="1"/><path d="M195,772L277,1034L406,944Z" fill="#a85f54" stroke="#a85f54" fill-opacity="1" stroke-opacity="1"/><path d="M195,772L406,944L362,779Z" fill="#b86150" stroke="#b86150" fill-opacity="1" stroke-opacity="1"/><path d="M362,779L406,944L545,837Z" fill="#b45541" stroke="#b45541" fill-opacity="1" stroke-opacity="1"/><path d="M545,837L406,944L543,920Z" fill="#ab4d39" stroke="#ab4d39" fill-opacity="1" stroke-opacity="1"/><path d="M545,837L543,920L627,794Z" fill="#b54a30" stroke="#b54a30" fill-opacity="1" stroke-opacity="1"/><path d="M627,794L543,920L687,943Z" fill="#ac422c" stroke="#ac422c" fill-opacity="1" stroke-opacity="1"/><path d="M627,794L687,943L848,770Z" fill="#b13d24" stroke="#b13d24" fill-opacity="1" stroke-opacity="1"/><path d="M848,770L687,943L885,916Z" fill="#a6301d" stroke="#a6301d" fill-opacity="1" stroke-opacity="1"/><path d="M848,770L885,916L935,877Z" fill="#a52c18" stroke="#a52c18" fill-opacity="1" stroke-opacity="1"/><path d="M935,877L885,916L946,917Z" fill="#992717" stroke="#992717" fill-opacity="1" stroke-opacity="1"/><path d="M935,877L946,917L1099,808Z" fill="#982416" stroke="#982416" fill-opacity="1" stroke-opacity="1"/><path d="M1099,808L946,917L1127,939Z" fill="#8c2015" stroke="#8c2015" fill-opacity="1" stroke-opacity="1"/><path d="M1099,808L1127,939L1287,848Z" fill="#841b13" stroke="#841b13" fill-opacity="1" stroke-opacity="1"/><path d="M1287,848L1127,939L1252,972Z" fill="#741712" stroke="#741712" fill-opacity="1" stroke-opacity="1"/><path d="M1287,848L1252,972L1381,1011Z" fill="#661312" stroke="#661312" fill-opacity="1" stroke-opacity="1"/><path d="M1287,848L1381,1011L1455,772Z" fill="#6b0f12" stroke="#6b0f12" fill-opacity="1" stroke-opacity="1"/><path d="M1455,772L1381,1011L1527,928Z" fill="#5d0b12" stroke="#5d0b12" fill-opacity="1" stroke-opacity="1"/><path d="M1455,772L1527,928L1582,842Z" fill="#600a12" stroke="#600a12" fill-opacity="1" stroke-opacity="1"/><path d="M-44,1005L277,1034L126,989Z" fill="#976d6e" stroke="#976d6e" fill-opacity="1" stroke-opacity="1"/><path d="M277,1034L1381,1011L687,943Z" fill="#91331f" stroke="#91331f" fill-opacity="1" stroke-opacity="1"/><path d="M277,1034L687,943L543,920Z" fill="#9f4d39" stroke="#9f4d39" fill-opacity="1" stroke-opacity="1"/><path d="M277,1034L543,920L406,944Z" fill="#9f5545" stroke="#9f5545" fill-opacity="1" stroke-opacity="1"/><path d="M687,943L1381,1011L1252,972Z" fill="#761e14" stroke="#761e14" fill-opacity="1" stroke-opacity="1"/><path d="M687,943L1252,972L1127,939Z" fill="#842215" stroke="#842215" fill-opacity="1" stroke-opacity="1"/><path d="M687,943L1127,939L946,917Z" fill="#932817" stroke="#932817" fill-opacity="1" stroke-opacity="1"/><path d="M687,943L946,917L885,916Z" fill="#9c2d1a" stroke="#9c2d1a" fill-opacity="1" stroke-opacity="1"/></g></svg>